<svg width="18" height="20" viewBox="0 0 18 20" fill="none" xmlns="http://www.w3.org/2000/svg">
<path d="M2.3 19.5C1.8 19.5 1.375 19.325 1.025 18.975C0.675 18.625 0.5 18.2 0.5 17.7V6.3C0.5 5.8 0.675 5.375 1.025 5.025C1.375 4.675 1.8 4.5 2.3 4.5H4.5C4.5 3.25 4.93733 2.18733 5.812 1.312C6.68733 0.437333 7.75 0 9 0C10.25 0 11.3127 0.437333 12.188 1.312C13.0627 2.18733 13.5 3.25 13.5 4.5H15.7C16.2 4.5 16.625 4.675 16.975 5.025C17.325 5.375 17.5 5.8 17.5 6.3V17.7C17.5 18.2 17.325 18.625 16.975 18.975C16.625 19.325 16.2 19.5 15.7 19.5H2.3ZM2.3 18H15.7C15.7667 18 15.8333 17.9667 15.9 17.9C15.9667 17.8333 16 17.7667 16 17.7V6.3C16 6.23333 15.9667 6.16667 15.9 6.1C15.8333 6.03333 15.7667 6 15.7 6H2.3C2.23333 6 2.16667 6.03333 2.1 6.1C2.03333 6.16667 2 6.23333 2 6.3V17.7C2 17.7667 2.03333 17.8333 2.1 17.9C2.16667 17.9667 2.23333 18 2.3 18ZM9 11.5C10.25 11.5 11.3127 11.0627 12.188 10.188C13.0627 9.31267 13.5 8.25 13.5 7H12C12 7.83333 11.7083 8.54167 11.125 9.125C10.5417 9.70833 9.83333 10 9 10C8.16667 10 7.45833 9.70833 6.875 9.125C6.29167 8.54167 6 7.83333 6 7H4.5C4.5 8.25 4.93733 9.31267 5.812 10.188C6.68733 11.0627 7.75 11.5 9 11.5ZM6 4.5H12C12 3.66667 11.7083 2.95833 11.125 2.375C10.5417 1.79167 9.83333 1.5 9 1.5C8.16667 1.5 7.45833 1.79167 6.875 2.375C6.29167 2.95833 6 3.66667 6 4.5Z" fill="#333333"/>
</svg>
