<svg width="16" height="16" viewBox="0 0 16 16" fill="none" xmlns="http://www.w3.org/2000/svg">
<mask id="mask0_3034_11507" style="mask-type:alpha" maskUnits="userSpaceOnUse" x="0" y="0" width="16" height="16">
<rect width="16" height="16" fill="#D9D9D9"/>
</mask>
<g mask="url(#mask0_3034_11507)">
<path d="M13.0333 13.7333L8.83327 9.54994C8.49994 9.82771 8.1166 10.0444 7.68327 10.1999C7.24994 10.3555 6.80549 10.4333 6.34993 10.4333C5.20549 10.4333 4.23882 10.0388 3.44993 9.24994C2.66105 8.46105 2.2666 7.49438 2.2666 6.34994C2.2666 5.2166 2.66105 4.2526 3.44993 3.45794C4.23882 2.66371 5.20549 2.2666 6.34993 2.2666C7.48327 2.2666 8.44438 2.66105 9.23327 3.44993C10.0222 4.23882 10.4166 5.20549 10.4166 6.34994C10.4166 6.82771 10.3388 7.28327 10.1833 7.7166C10.0277 8.14994 9.8166 8.52771 9.54993 8.84994L13.7333 13.0333L13.0333 13.7333ZM6.34993 9.43327C7.20549 9.43327 7.9306 9.13327 8.52527 8.53327C9.11949 7.93327 9.4166 7.20549 9.4166 6.34994C9.4166 5.49438 9.11949 4.7666 8.52527 4.1666C7.9306 3.5666 7.20549 3.2666 6.34993 3.2666C5.48327 3.2666 4.75282 3.5666 4.1586 4.1666C3.56393 4.7666 3.2666 5.49438 3.2666 6.34994C3.2666 7.20549 3.56393 7.93327 4.1586 8.53327C4.75282 9.13327 5.48327 9.43327 6.34993 9.43327Z" fill="#333333"/>
</g>
</svg>
