<svg width="144" height="40" viewBox="0 0 144 40" fill="none" xmlns="http://www.w3.org/2000/svg">
<path d="M34.5346 32.0278H1.54443V34.0001H34.5346V32.0278Z" fill="#C6A872"/>
<path d="M36.5434 0L35.5163 1.02704H34.0651V2.47825L33.0381 3.50529L34.0651 4.53233V5.98354H35.5163L36.5434 7.01058L37.5704 5.98354H39.0216V4.53233L40.0487 3.50529L39.0216 2.47825V1.02704H37.5704L36.5434 0Z" fill="#C6A872"/>
<path d="M39.332 14.0146L35.9946 17.352V26.7934L39.332 30.1308H46.476L49.8134 26.7934V17.352L46.476 14.0146H39.332ZM40.4817 24.8729V19.2747C40.4817 19.2747 40.4817 17.7848 42.904 17.7848C45.3263 17.7848 45.3263 19.2747 45.3263 19.2747V24.8729C45.3263 24.8729 45.3263 26.3628 42.904 26.3628C40.4817 26.3628 40.4817 24.8729 40.4817 24.8729Z" fill="#486456"/>
<path d="M55.4135 14.0146L52.0762 17.352V26.7934L55.4135 30.1308H62.5576L65.8949 26.7934V17.352L62.5576 14.0146H55.4135ZM56.5633 24.8729V19.2747C56.5633 19.2747 56.5633 17.7848 58.9856 17.7848C61.4078 17.7848 61.4078 19.2747 61.4078 19.2747V24.8729C61.4078 24.8729 61.4078 26.3628 58.9856 26.3628C56.5633 26.3628 56.5633 24.8729 56.5633 24.8729V24.8729Z" fill="#486456"/>
<path d="M72.776 19.925C72.3217 19.8195 72.0698 19.6171 72.0698 18.9625C72.0698 18.308 72.4057 17.8192 73.1291 17.6384C73.8526 17.4575 74.8473 17.4295 75.8787 17.6384C76.91 17.8472 78.9942 18.6783 78.9942 18.6783L77.4397 14.0146H70.92L67.5827 17.352V20.7625L70.3215 23.5013C70.3215 23.5013 73.3444 23.975 73.9107 24.2183C74.477 24.4638 74.6169 24.776 74.6169 25.3121C74.6169 25.8482 74.4124 26.5049 73.5576 26.5049H70.0049C69.1631 26.5049 66.9712 25.4585 66.9712 25.4585L68.5279 30.1308H75.7667L79.1041 26.7934V23.3829L76.3653 20.6441C76.3653 20.6441 73.2303 20.0305 72.776 19.9271V19.925Z" fill="#486456"/>
<path d="M85.4236 8.84521H80.4197L81.0786 11.4849V27.4913L80.0278 30.131H86.4571L85.4236 27.4913V8.84521Z" fill="#486456"/>
<path d="M33.2967 27.7644V8.31738C29.8215 8.31738 28.0904 9.59203 28.0904 9.59203V11.9368C26.7921 9.65232 24.4452 8.95255 24.4452 8.95255C24.4452 8.95255 20.66 9.93438 18.0396 13.5753C15.4193 9.93438 11.6341 8.95255 11.6341 8.95255C11.6341 8.95255 9.28715 9.65017 7.98882 11.9368V9.59203C7.98882 9.59203 6.2577 8.31738 2.78256 8.31738V27.7644L1.82227 30.1307H8.95126L7.99528 27.9388L7.99097 26.2874V20.6376C8.0771 19.0765 8.61322 17.5909 9.54768 16.5337C10.1075 15.8985 11.6211 14.7358 11.6211 14.7358C11.6211 14.7358 11.6254 14.7402 11.6362 14.7466C11.6448 14.7402 11.6513 14.7358 11.6513 14.7358C11.6513 14.7358 13.1649 15.9007 13.7247 16.5337C14.7496 17.6942 15.2965 19.3694 15.2965 21.094L15.2771 28.0874L14.3276 30.1307H21.7581C21.3791 29.6032 20.8085 28.0874 20.8085 28.0874L20.7891 21.094C20.7891 19.3694 21.336 17.6942 22.3609 16.5337C22.9207 15.8985 24.4344 14.7358 24.4344 14.7358C24.4344 14.7358 24.4387 14.7402 24.4495 14.7466C24.4581 14.7402 24.4645 14.7358 24.4645 14.7358C24.4645 14.7358 25.9782 15.9007 26.538 16.5337C27.4724 17.5909 28.0064 19.0765 28.0947 20.6376V26.1732V26.2852L28.0904 27.9367L27.1344 30.1285H34.2634L33.3031 27.7623L33.2967 27.7644Z" fill="#486456"/>
<path d="M136.027 30.1309H142.456L141.42 27.4912V17.0657L138.369 14.0148H134.868L132.577 15.1602V14.6112C132.577 14.6112 131.208 13.6035 128.463 13.6035V27.4912L127.412 30.1309H133.841L132.806 27.4912V19.5612C132.806 19.5612 132.806 17.7849 135.013 17.7849C137.077 17.7849 137.077 19.2748 137.077 19.2748V27.4933L136.027 30.1331V30.1309Z" fill="#486456"/>
<path d="M112.192 30.1309H118.621L117.585 27.4912V17.0657L114.534 14.0148H110.747L107.976 15.4014L106.036 14.0148H102.993L100.7 15.1602V14.6112C100.7 14.6112 99.3309 13.6035 96.5857 13.6035V27.4912L95.5371 30.1309H101.966L100.931 27.4912V19.5612C100.931 19.5612 100.935 17.7849 102.996 17.7849C104.916 17.7849 104.916 19.2748 104.916 19.2748V27.4933L103.865 30.1331H110.295L109.259 27.4933V19.5634C109.259 19.5634 109.259 17.787 111.324 17.787C113.244 17.787 113.244 19.277 113.244 19.277V27.4955L112.194 30.1352L112.192 30.1309Z" fill="#486456"/>
<path d="M125.052 27.4912V13.6035C122.154 13.6035 120.709 14.6672 120.709 14.6672V27.4912L119.658 30.1309H126.087L125.052 27.4912V27.4912Z" fill="#486456"/>
<path d="M93.1773 27.4912V13.6035C90.2792 13.6035 88.8344 14.6672 88.8344 14.6672V27.4912L87.7837 30.1309H94.2129L93.1773 27.4912V27.4912Z" fill="#486456"/>
<path d="M125.052 11.5689C125.052 11.5689 122.35 11.3902 120.709 12.6584V8.84521H125.052V11.5711V11.5689Z" fill="#486456"/>
<path d="M93.1685 11.5689C93.1685 11.5689 90.4664 11.3902 88.8257 12.6584V8.84521H93.1685V11.5711V11.5689Z" fill="#486456"/>
</svg>
