<svg width="62" height="18" viewBox="0 0 62 18" fill="none" xmlns="http://www.w3.org/2000/svg">
<path fill-rule="evenodd" clip-rule="evenodd" d="M10.5391 9.04102C10.4768 7.96909 9.56463 7.14622 8.49198 7.19444H3.15973C2.96548 7.19444 2.808 7.03696 2.808 6.84271C2.808 6.64845 2.96548 6.49097 3.15973 6.49097H8.56228C8.53308 5.76117 8.03533 5.13401 7.33122 4.93984C5.75711 4.66198 4.14649 4.66198 2.57237 4.93984C1.67756 5.16026 1.0082 5.90492 0.884063 6.81808C0.634349 8.47476 0.634349 10.1595 0.884063 11.8162C1.07416 12.7805 1.83943 13.5276 2.80803 13.6944C4.76201 13.9371 6.73851 13.9371 8.69249 13.6944C9.56144 13.5165 10.2189 12.8024 10.3246 11.9217C10.4995 10.972 10.5714 10.0062 10.5391 9.04102ZM8.78728 10.2231V10.5361C8.78728 10.7304 8.62981 10.8879 8.43555 10.8879C8.2413 10.8879 8.08382 10.7304 8.08382 10.5361V10.2231C7.97143 10.1246 7.90727 9.98215 7.90796 9.83268C7.90796 9.5413 8.14417 9.30508 8.43555 9.30508C8.72694 9.30508 8.96315 9.5413 8.96315 9.83268C8.96384 9.98215 8.89968 10.1246 8.78728 10.2231V10.2231Z" fill="#717171"/>
<path fill-rule="evenodd" clip-rule="evenodd" d="M33.9009 8.24324C33.9009 6.03906 32.1321 4.31218 29.7026 4.31218C28.2367 4.21608 26.8391 4.94361 26.077 6.19952C25.3149 7.45543 25.3149 9.03105 26.077 10.287C26.8391 11.5429 28.2367 12.2704 29.7026 12.1743C32.1321 12.1743 33.9009 10.4474 33.9009 8.24324ZM17.9655 12.3288C18.5331 13.1386 19.477 13.5999 20.4646 13.5501C21.6293 13.5501 22.486 12.8061 22.486 11.7949V11.2616H22.4577C21.8196 11.8852 20.9484 12.2114 20.0576 12.1601C18.6503 12.2005 17.331 11.4773 16.6081 10.2692C15.8852 9.06113 15.8715 7.55671 16.5723 6.33566C17.2731 5.11461 18.579 4.36755 19.9868 4.38235C20.8945 4.32411 21.7868 4.63836 22.4577 5.25259H22.486V4.52277H24.4801V11.7672C24.4801 13.8728 22.8093 15.333 20.4647 15.333C18.9289 15.4168 17.4461 14.759 16.4776 13.5642L17.9655 12.3288ZM22.4022 7.82196C22.4022 6.97947 21.4476 6.2072 20.3808 6.2072C19.0322 6.2072 18.1342 7.02192 18.1342 8.2432C18.0942 8.82185 18.3117 9.38863 18.7285 9.792C19.1453 10.1954 19.7189 10.3942 20.2959 10.3353C21.4617 10.3353 22.4022 9.6049 22.4022 8.6922V7.82196ZM29.7026 6.13706C28.5414 6.14498 27.6058 7.0913 27.611 8.25249C27.6162 9.41369 28.5604 10.3515 29.7216 10.349C30.8828 10.3465 31.8228 9.40448 31.823 8.24328C31.8493 7.67452 31.6339 7.12115 31.2299 6.7199C30.826 6.31865 30.2712 6.10693 29.7026 6.13706ZM37.0183 4.52281H35.0242V15.1225H37.1021V11.3879H37.1304C37.7909 11.9154 38.6158 12.1938 39.4609 12.1743C41.6015 12.128 43.3115 10.3774 43.3076 8.23631C43.3038 6.09522 41.5875 4.35081 39.4467 4.31219C38.5625 4.26982 37.6982 4.58322 37.0466 5.18243H37.0183V4.52281ZM39.1245 6.15117C38.0284 6.15117 37.1021 6.92345 37.1021 7.76594V8.70639C37.1021 9.60494 38.0012 10.3489 39.1376 10.3489C40.2967 10.3453 41.2335 9.40269 41.2299 8.24351C41.2263 7.08434 40.2837 6.14757 39.1245 6.15117ZM48.9938 6.76892C48.9938 7.14825 48.5867 7.34473 47.225 7.52705C44.8804 7.85033 43.9541 8.566 43.9541 9.956C43.9541 11.2758 45.0904 12.1743 46.733 12.1743C47.6844 12.2416 48.6131 11.8629 49.2463 11.1495H49.2746V11.9637H51.1425V7.23207C51.1425 5.42138 49.7938 4.31221 47.6179 4.31221C45.6946 4.31221 44.1359 5.39308 43.855 6.90933L45.8208 7.31643C46.0258 6.47593 46.8125 5.91004 47.6745 5.98303C48.4746 5.98303 48.9938 6.27747 48.9938 6.76892ZM49.1625 8.31341H49.1342C48.9513 8.58009 48.5584 8.73465 47.5483 8.91697C46.3259 9.14174 45.8916 9.38012 45.8916 9.81552C45.8916 10.2651 46.2562 10.4615 47.0421 10.4615C48.2362 10.4615 49.1625 9.91402 49.1625 9.1978V8.31341ZM51.4646 4.52277L54.9042 11.5565L53.1355 15.1224H55.4245L60.5763 4.52277H58.2742L56.0417 9.38012H56.0134L53.7537 4.52277H51.4646Z" fill="#1C1D1D"/>
</svg>
