<svg width="25" height="24" viewBox="0 0 25 24" fill="none" xmlns="http://www.w3.org/2000/svg">
<mask id="mask0_698_4580" style="mask-type:alpha" maskUnits="userSpaceOnUse" x="0" y="0" width="25" height="24">
<rect x="0.5" width="24" height="24" fill="#D9D9D9"/>
</mask>
<g mask="url(#mask0_698_4580)">
<path d="M6.5 20C5.66667 20 4.95833 19.7083 4.375 19.125C3.79167 18.5417 3.5 17.8333 3.5 17H1.5V6C1.5 5.45 1.696 4.97933 2.088 4.588C2.47933 4.196 2.95 4 3.5 4H17.5V8H20.5L23.5 12V17H21.5C21.5 17.8333 21.2083 18.5417 20.625 19.125C20.0417 19.7083 19.3333 20 18.5 20C17.6667 20 16.9583 19.7083 16.375 19.125C15.7917 18.5417 15.5 17.8333 15.5 17H9.5C9.5 17.8333 9.20833 18.5417 8.625 19.125C8.04167 19.7083 7.33333 20 6.5 20ZM6.5 18C6.78333 18 7.021 17.904 7.213 17.712C7.40433 17.5207 7.5 17.2833 7.5 17C7.5 16.7167 7.40433 16.4793 7.213 16.288C7.021 16.096 6.78333 16 6.5 16C6.21667 16 5.979 16.096 5.787 16.288C5.59567 16.4793 5.5 16.7167 5.5 17C5.5 17.2833 5.59567 17.5207 5.787 17.712C5.979 17.904 6.21667 18 6.5 18ZM18.5 18C18.7833 18 19.0207 17.904 19.212 17.712C19.404 17.5207 19.5 17.2833 19.5 17C19.5 16.7167 19.404 16.4793 19.212 16.288C19.0207 16.096 18.7833 16 18.5 16C18.2167 16 17.9793 16.096 17.788 16.288C17.596 16.4793 17.5 16.7167 17.5 17C17.5 17.2833 17.596 17.5207 17.788 17.712C17.9793 17.904 18.2167 18 18.5 18ZM17.5 13H21.75L19.5 10H17.5V13Z" fill="#F2E4CC"/>
</g>
</svg>
