<svg width="54" height="18" viewBox="0 0 54 18" fill="none" xmlns="http://www.w3.org/2000/svg">
<path fill-rule="evenodd" clip-rule="evenodd" d="M50.2936 2.46639C48.5685 0.942907 46.1963 0.230923 43.9146 0.448563C43.3445 0.500565 42.7789 0.602002 42.23 0.764429C40.2192 1.34288 38.4556 2.72062 37.4027 4.52722C35.9871 6.90971 35.8176 9.96758 36.9103 12.508C37.7218 14.4218 39.2729 16.0101 41.1745 16.8524C43.3342 17.809 45.89 17.8379 48.069 16.9256C49.1797 16.4583 50.187 15.7443 50.9946 14.85C52.4693 13.2392 53.2538 11.041 53.2038 8.86461C53.1909 6.45067 52.1316 4.04444 50.2936 2.46639ZM40.4142 5.48827C41.225 4.27937 42.5623 3.43642 44.0101 3.25666C45.158 3.10065 46.3617 3.3292 47.3562 3.93076C48.3115 4.49765 49.0582 5.38683 49.5043 6.40056C50.3858 8.42287 50.1881 10.9293 48.8572 12.7128C48.2261 13.5576 47.3401 14.2163 46.3341 14.5412C45.0707 14.9527 43.648 14.8641 42.4513 14.2844C41.5075 13.8305 40.7185 13.0781 40.1953 12.1728C39.0255 10.1402 39.0929 7.43483 40.4142 5.48827ZM13.2182 1.33874C11.6613 0.531738 9.8496 0.262096 8.11747 0.491934C6.44761 0.707006 4.8426 1.43119 3.59711 2.56754C2.31951 3.71031 1.42263 5.26075 1.03486 6.92804C0.566839 8.90734 0.782553 11.051 1.67815 12.8814C2.50056 14.591 3.92966 16.0015 5.65217 16.7982C7.35797 17.5918 9.32444 17.7818 11.1606 17.3959C12.9248 17.0287 14.5542 16.0606 15.7284 14.6944C16.8481 13.4039 17.5453 11.7649 17.7411 10.0707C17.9305 8.49068 17.6962 6.85935 17.0523 5.40264C16.2889 3.66344 14.9144 2.19646 13.2182 1.33874ZM6.29299 4.16881C6.97993 3.67254 7.79464 3.36053 8.63374 3.25267C9.63848 3.12299 10.6843 3.2822 11.5927 3.7361C12.6623 4.25805 13.5207 5.17163 14.0259 6.24506C14.5999 7.44176 14.7559 8.82143 14.5395 10.126C14.3399 11.3163 13.7961 12.4648 12.9268 13.3123C12.1795 14.0666 11.1857 14.5693 10.1373 14.7317C8.8533 14.934 7.49033 14.656 6.41433 13.919C5.30301 13.1774 4.52298 11.9942 4.18592 10.7096C3.85337 9.44096 3.8951 8.06964 4.32973 6.83057C4.69953 5.77511 5.37877 4.81981 6.29299 4.16881ZM18.5159 0.875453L18.5151 0.875453C18.5147 1.48833 18.5149 2.10149 18.515 2.71475C18.5151 3.02142 18.5151 3.3281 18.5151 3.63479C18.9311 3.63576 19.3467 3.63564 19.7626 3.63551C19.9012 3.63547 20.0399 3.63543 20.1786 3.63543C21.2073 6.002 22.2348 8.36922 23.2622 10.7363C24.0083 12.4552 24.7543 14.1741 25.5008 15.8926C25.8481 16.69 26.5781 17.3121 27.4275 17.5092C27.7365 17.59 28.0552 17.5867 28.3728 17.5835C28.4716 17.5825 28.5702 17.5815 28.6685 17.583C29.6432 15.2871 30.6211 12.9924 31.599 10.6979C32.7647 7.96281 33.9303 5.22782 35.0904 2.49074C35.12 2.15771 35.1155 1.82144 35.111 1.48518C35.1082 1.28148 35.1055 1.07778 35.1103 0.874811H29.7188C29.7181 1.79545 29.7175 2.71544 29.7188 3.63543C29.9535 3.63571 30.1882 3.63563 30.4229 3.63555C30.7358 3.63545 31.0487 3.63534 31.3617 3.63608C30.9324 4.68763 30.5043 5.73963 30.0761 6.79163C29.2458 8.83153 28.4155 10.8714 27.5777 12.9079C26.9241 11.3602 26.2706 9.81249 25.6172 8.26477C24.9657 6.72187 24.3143 5.17898 23.6627 3.63608C23.9388 3.63511 24.215 3.63527 24.4913 3.63543C24.7676 3.6356 25.044 3.63576 25.3204 3.63479V0.875453C23.0524 0.874169 20.7845 0.874811 18.5159 0.875453Z" fill="#1C1D1D"/>
</svg>
