<svg width="58" height="18" viewBox="0 0 58 18" fill="none" xmlns="http://www.w3.org/2000/svg">
<path fill-rule="evenodd" clip-rule="evenodd" d="M8.54613 13.4394C8.54613 12.7565 8.554 10.931 8.53614 10.7061C8.55171 7.98976 6.4566 6.07363 5.133 6.22301C4.21712 6.29793 3.44938 6.64998 3.0374 7.66274C2.65525 8.60659 2.99693 9.86203 4.26694 10.1566C5.62478 10.473 6.41792 10.7362 6.9918 11.1076C7.69498 11.5622 8.26903 12.4308 8.28427 13.4405" fill="#2D2D2D"/>
<path fill-rule="evenodd" clip-rule="evenodd" d="M7.97825 13.4402C7.98268 12.5648 7.46435 11.7907 6.7869 11.3747C6.18598 11.0071 5.37924 10.7656 4.07776 10.4544C3.67546 10.3573 3.25463 10.1418 3.12436 9.86719C2.77973 10.1945 2.71713 10.9305 2.77777 11.3607C2.84823 11.8582 3.46521 12.6785 4.3942 12.7107C4.96153 12.7321 5.6788 12.5956 6.02276 12.5267C6.61615 12.4059 7.55497 12.7562 7.70442 13.4392" fill="#2D2D2D"/>
<path fill-rule="evenodd" clip-rule="evenodd" d="M9.02576 1.98926C7.45045 1.98926 6.08999 2.96849 6.09474 4.66295C6.09966 6.08785 7.31526 6.85066 7.74919 7.3955C8.40468 8.21655 8.75947 9.18837 8.79617 10.6754C8.82502 11.8588 8.82354 13.0274 8.82993 13.4416H9.1775C9.17161 13.0083 9.15587 11.7677 9.17374 10.6388C9.19733 9.15129 9.5649 8.21655 10.2207 7.3955C10.6584 6.85066 11.8729 6.08785 11.8755 4.66295C11.8816 2.96849 10.5216 1.98926 8.94792 1.98926" fill="#2D2D2D"/>
<path fill-rule="evenodd" clip-rule="evenodd" d="M9.42574 13.4394C9.42574 12.7565 9.41755 10.931 9.43508 10.7061C9.41968 7.98976 11.5135 6.07363 12.8382 6.22301C13.7541 6.29793 14.5209 6.64998 14.9341 7.66274C15.3158 8.60659 14.9723 9.86203 13.704 10.1566C12.3451 10.473 11.5531 10.7362 10.9778 11.1076C10.2754 11.5622 9.74152 12.4308 9.72514 13.4405" fill="#2D2D2D"/>
<path fill-rule="evenodd" clip-rule="evenodd" d="M9.9932 13.4402C9.98828 12.5648 10.5064 11.7907 11.1819 11.3747C11.7855 11.0071 12.593 10.7656 13.8934 10.4544C14.2965 10.3573 14.7168 10.1418 14.8448 9.86719C15.1911 10.1945 15.2537 10.9305 15.1929 11.3607C15.1211 11.8582 14.5056 12.6785 13.5782 12.7107C13.0112 12.7321 12.29 12.5956 11.9475 12.5267C11.3565 12.4059 10.415 12.7562 10.2649 13.4392" fill="#2D2D2D"/>
<path fill-rule="evenodd" clip-rule="evenodd" d="M10.4783 16.2655L10.2769 14.879L10.7634 14.8095C10.8817 14.7944 11.0259 14.8138 11.0836 14.8837C11.1473 14.9567 11.1668 15.0171 11.1791 15.1129C11.1977 15.2315 11.1613 15.3684 11.0197 15.4367V15.4409C11.1777 15.4409 11.2732 15.5479 11.3011 15.7286C11.305 15.767 11.3171 15.859 11.305 15.936C11.2729 16.119 11.1572 16.178 10.9615 16.2038L10.4783 16.2655ZM10.7917 16.0172C10.8494 16.0094 10.9079 16.0064 10.9536 15.9789C11.0237 15.9358 11.0173 15.8438 11.0075 15.7752C10.9833 15.6249 10.9416 15.5676 10.7724 15.5912L10.6658 15.6066L10.7333 16.0248L10.7917 16.0172ZM10.69 15.3769C10.7544 15.3671 10.8415 15.3597 10.8779 15.3021C10.8971 15.2636 10.9213 15.233 10.9053 15.1475C10.8855 15.0461 10.8499 14.9831 10.7131 15.0075L10.5857 15.0268L10.636 15.3821L10.69 15.3769Z" fill="#2D2D2D"/>
<path fill-rule="evenodd" clip-rule="evenodd" d="M12.5864 15.4323C12.5902 15.4581 12.5946 15.4868 12.5962 15.5126C12.6356 15.7654 12.5864 15.9748 12.2849 16.0325C11.839 16.1132 11.7536 15.8523 11.6753 15.4868L11.6335 15.289C11.572 14.9394 11.5456 14.6746 11.9802 14.5929C12.2252 14.5509 12.3871 14.6428 12.4545 14.8726C12.465 14.9069 12.4781 14.9408 12.483 14.9754L12.2164 15.0273C12.1856 14.9408 12.1448 14.7864 12.0248 14.7994C11.8095 14.824 11.8806 15.0764 11.9027 15.1821L11.9829 15.5616C12.0069 15.6764 12.0548 15.8597 12.2411 15.8244C12.3924 15.7958 12.3263 15.5737 12.3129 15.4825" fill="#2D2D2D"/>
<path fill-rule="evenodd" clip-rule="evenodd" d="M13.0145 15.8523L12.9224 14.4175L13.2804 14.3145L14.0315 15.5623L13.7494 15.6419L13.5715 15.3247L13.2583 15.4134L13.2988 15.774L13.0145 15.8523ZM13.2323 15.1815L13.4586 15.1197L13.158 14.5392L13.2323 15.1815Z" fill="#2D2D2D"/>
<path fill-rule="evenodd" clip-rule="evenodd" d="M4.1668 14.767C4.27889 14.4288 4.37918 14.1796 4.80705 14.2903C5.03598 14.3507 5.17789 14.4457 5.17117 14.6964C5.17002 14.7521 5.15052 14.8091 5.13774 14.8641L4.87145 14.7949C4.90635 14.6564 4.92848 14.5465 4.74756 14.494C4.53846 14.4399 4.4875 14.6791 4.45865 14.7823L4.35034 15.1583C4.31592 15.27 4.27463 15.4546 4.45865 15.5023C4.61073 15.5407 4.70282 15.4002 4.75789 15.1947L4.57173 15.1481L4.63613 14.9306L5.07416 15.0633L4.86621 15.7882L4.66464 15.7366L4.71004 15.5834H4.7043C4.61138 15.7088 4.49831 15.722 4.39917 15.7039C3.96114 15.5923 4.00686 15.3225 4.11141 14.9619" fill="#2D2D2D"/>
<path fill-rule="evenodd" clip-rule="evenodd" d="M5.79653 15.379L5.66461 15.9688L5.36768 15.9084L5.68411 14.5312L6.19031 14.6389C6.4866 14.6993 6.57607 14.8235 6.53412 15.0796C6.51019 15.2266 6.43334 15.3847 6.2457 15.3719L6.24374 15.3696C6.40237 15.4218 6.4158 15.4974 6.38811 15.6276C6.37615 15.6832 6.29372 16.0196 6.35058 16.074L6.35255 16.1154L6.04529 16.0397C6.03251 15.9466 6.0761 15.7788 6.0933 15.6858C6.11051 15.6036 6.1382 15.4878 6.04971 15.4444C5.98056 15.4095 5.95467 15.4112 5.87634 15.3943L5.79653 15.379ZM5.84774 15.166L6.04766 15.2169C6.16909 15.2335 6.23661 15.1742 6.26053 15.0358C6.28217 14.909 6.25414 14.8596 6.14517 14.835L5.93082 14.7939L5.84774 15.166Z" fill="#2D2D2D"/>
<path fill-rule="evenodd" clip-rule="evenodd" d="M7.7012 14.8388L7.99486 14.8709L7.86835 15.8392C7.8069 16.1461 7.68104 16.2802 7.32282 16.2384C6.95837 16.1948 6.87184 16.0385 6.8938 15.7291L7.02129 14.7617L7.31725 14.7935L7.19025 15.7393C7.17664 15.842 7.15157 15.9941 7.34527 16.0127C7.51717 16.025 7.55617 15.9175 7.57567 15.7841" fill="#2D2D2D"/>
<path fill-rule="evenodd" clip-rule="evenodd" d="M8.31885 16.2907L8.40734 14.9062L8.97139 14.9293C9.23817 14.9418 9.30782 15.1469 9.29962 15.3428C9.29176 15.4619 9.25243 15.5949 9.14231 15.6671C9.05201 15.7284 8.93583 15.7429 8.82833 15.738L8.64446 15.7284L8.60775 16.3086L8.31885 16.2907ZM8.65266 15.5176L8.80212 15.5254C8.92355 15.5296 9.00401 15.4843 9.01449 15.3163C9.02056 15.155 8.95566 15.1275 8.79835 15.121L8.68003 15.1172L8.65266 15.5176Z" fill="#2D2D2D"/>
<path fill-rule="evenodd" clip-rule="evenodd" d="M48.1122 3.32704L45.8698 7.16395C45.0234 6.51592 43.99 6.0392 42.6713 6.0392C39.5507 6.0392 38.283 8.23185 38.283 9.77647C38.283 10.9232 39.0794 12.6147 41.8561 12.6147C43.0217 12.6147 44.6784 11.8505 45.1553 11.5026L42.9376 15.954C41.8805 16.1528 41.5331 16.2761 40.6383 16.3022C35.6684 16.442 33.6603 13.5639 33.6616 10.6233C33.6651 6.73558 37.3315 2.00765 43.4101 2.00765C43.7824 2.00765 44.2379 2.12922 44.6275 2.26377L45.0212 1.78906" fill="#2D2D2D"/>
<path fill-rule="evenodd" clip-rule="evenodd" d="M57.3649 1.90918L57.9999 15.854H53.2741L53.2715 13.4625H50.049L48.9886 15.854H43.8633L49.2216 5.89624L48.0133 5.88883L50.3089 1.90918H57.3649ZM53.2405 6.17481L51.4188 10.2309H53.2956L53.2405 6.17481Z" fill="#2D2D2D"/>
<path fill-rule="evenodd" clip-rule="evenodd" d="M30.6789 1.90881C33.0191 1.92117 34.3416 3.11868 34.3416 4.84836C34.3416 6.44319 32.9469 7.85465 31.4158 8.58455C32.9921 9.13094 33.1285 10.4718 33.1285 11.4203C33.1285 13.7123 30.689 15.8536 27.518 15.8536H20.6021L23.2997 6.03459L22.1916 6.02857L24.4568 1.90881C24.4568 1.90881 28.7758 1.89645 30.6789 1.90881ZM28.3822 7.56251C28.8663 7.56251 29.7211 7.44696 29.9348 6.56381C30.1689 5.60497 29.3668 5.57918 28.982 5.57918L27.6071 5.57361L27.1276 7.56251H28.3822ZM26.4389 10.0268L25.8059 12.3186H27.4249C28.0617 12.3186 28.9298 12.0205 29.1425 11.2746C29.3526 10.5268 28.7457 10.0268 28.1112 10.0268H26.4389Z" fill="#2D2D2D"/>
<path fill-rule="evenodd" clip-rule="evenodd" d="M9.08836 17.5677C6.69369 17.5677 4.23299 17.0117 1.77539 15.9122L1.71509 15.8842L1.68625 15.8263C0.583385 13.6318 0 11.2317 0 8.8833C0 6.53834 0.55946 4.24079 1.66298 2.04922L1.69346 1.99098L1.75491 1.96194C4.02831 0.946718 6.47378 0.432617 9.02609 0.432617C11.4034 0.432617 13.9426 1.00496 16.3676 2.09093L16.4297 2.11704L16.4585 2.17636C17.5824 4.41134 18.1751 6.81099 18.1751 9.12058C18.1751 11.4209 17.6059 13.7206 16.4806 15.9542L16.4511 16.0127L16.3885 16.0399C14.1497 17.0389 11.6253 17.5677 9.08836 17.5677ZM2.00274 15.6112C4.39003 16.67 6.77126 17.2045 9.08825 17.2045C11.545 17.2045 13.9882 16.6983 16.1633 15.7387C17.2437 13.5743 17.7913 11.3467 17.7913 9.12056C17.7913 6.88512 17.2198 4.56008 16.1385 2.39075C13.7852 1.34788 11.3274 0.794847 9.02598 0.794847C6.55511 0.794847 4.18667 1.28887 1.98209 2.26362C0.923804 4.38768 0.385156 6.61355 0.385156 8.88328C0.385156 11.157 0.94478 13.4832 2.00274 15.6112Z" fill="#2D2D2D"/>
</svg>
