<svg width="62" height="16" viewBox="0 0 62 16" fill="none" xmlns="http://www.w3.org/2000/svg">
<path fill-rule="evenodd" clip-rule="evenodd" d="M16.7754 4.33301H20.1165C21.4695 4.33301 22.4781 4.93164 22.4781 6.19186C22.4781 7.11586 22.0106 7.63043 21.1983 7.90306V7.92383C22.1664 8.12391 22.666 8.64903 22.666 9.54106C22.666 11.2951 21.1356 11.6623 19.8349 11.6623H16.7754V4.33301ZM18.7109 7.2314H19.2526C19.8875 7.2314 20.5435 7.07383 20.5435 6.45379C20.5435 5.78261 19.9188 5.719 19.2729 5.719H18.7109V7.2314ZM18.7109 10.2766H19.2843C19.9914 10.2766 20.7301 10.1714 20.7301 9.42577C20.7301 8.62834 19.9708 8.55419 19.3046 8.55419H18.7109V10.2766Z" fill="#1C1D1D"/>
<path fill-rule="evenodd" clip-rule="evenodd" d="M25.2067 4.33301H27.5797L30.3794 11.6623H28.256L27.7153 10.0981H24.9884L24.4156 11.6623H22.4487L25.2067 4.33301ZM26.3937 5.8455H26.3718L25.4357 8.71241H27.2569L26.3937 5.8455Z" fill="#1C1D1D"/>
<path fill-rule="evenodd" clip-rule="evenodd" d="M30.6489 4.33301H33.1154L35.5717 9.31062H35.592L35.5613 4.33301H37.3312V11.6623H34.9268L32.3865 6.6537H32.3665L32.4286 11.6623H30.6489V4.33301Z" fill="#1C1D1D"/>
<path fill-rule="evenodd" clip-rule="evenodd" d="M37.9883 4.33301H39.9238V7.32648H39.9447L42.1296 4.33301H44.4618L41.7761 7.74549L44.6699 11.6623H42.2025L39.9447 8.33389H39.9238V11.6623H37.9883V4.33301Z" fill="#1C1D1D"/>
<path fill-rule="evenodd" clip-rule="evenodd" d="M47.0698 4.33301H50.4109C51.7636 4.33301 52.7735 4.93164 52.7735 6.19186C52.7735 7.11586 52.3059 7.63043 51.4937 7.90306V7.92383C52.4615 8.12391 52.9611 8.64903 52.9611 9.54106C52.9611 11.2951 51.431 11.6623 50.1306 11.6623H47.0698V4.33301ZM49.0063 7.2314H49.547C50.1822 7.2314 50.8373 7.07383 50.8373 6.45379C50.8373 5.78261 50.2136 5.719 49.5686 5.719H49.0063V7.2314ZM49.0063 10.2766H49.579C50.2861 10.2766 51.0255 10.1714 51.0255 9.42577C51.0255 8.62834 50.2658 8.55419 49.5996 8.55419H49.0063V10.2766Z" fill="#1C1D1D"/>
<path fill-rule="evenodd" clip-rule="evenodd" d="M53.3901 4.33301H56.8456C58.1359 4.33301 59.1876 4.92077 59.1876 6.18163C59.1876 7.15805 58.7295 7.80909 57.7931 8.0293V8.05008C58.4162 8.21851 58.4587 8.77463 58.823 9.66731L59.531 11.6623H57.5121L57.0956 10.3401C56.6999 9.07986 56.45 8.76409 55.7318 8.76409H55.3257V11.6623H53.3901V4.33301ZM55.3251 7.37842H55.8355C56.4599 7.37842 57.2512 7.35701 57.2512 6.52762C57.2512 5.84557 56.5739 5.719 55.8355 5.719H55.3251V7.37842Z" fill="#1C1D1D"/>
<mask id="mask0_3230_7081" style="mask-type:luminance" maskUnits="userSpaceOnUse" x="0" y="0" width="62" height="16">
<path fill-rule="evenodd" clip-rule="evenodd" d="M0 15.3637H61.9997V0.636719H0V15.3637Z" fill="white"/>
</mask>
<g mask="url(#mask0_3230_7081)">
<path fill-rule="evenodd" clip-rule="evenodd" d="M60.064 11.6623H61.9995V4.33301H60.064V11.6623Z" fill="#1C1D1D"/>
<path fill-rule="evenodd" clip-rule="evenodd" d="M12.3581 0.636719H2.22667C0.996919 0.636719 0 1.66746 0 2.93919V2.96348V13.0619C0 14.3212 0.978546 15.3449 2.19246 15.3637H12.3527C13.5827 15.3637 14.58 14.333 14.58 13.0619L14.5847 2.93919C14.5847 1.66746 13.5881 0.636719 12.3581 0.636719ZM3.43055 14.1836L2.87776 14.1896C2.20871 14.1896 1.66638 13.6351 1.66638 12.9508L1.66321 12.8533V3.50473L1.66669 3.00134C1.69172 2.33911 2.19034 1.806 2.84355 1.806H3.96718C4.98532 1.806 5.81118 2.69931 5.81118 3.75339C5.81118 4.27435 5.60875 4.74737 5.28088 5.09128L2.41399 8.02626L5.10095 10.7867C5.44751 11.1469 5.6569 11.6206 5.6569 12.1393C5.6569 13.2685 4.65998 14.1836 3.43055 14.1836ZM11.6914 14.1743L6.68174 14.172C6.68174 14.172 7.26114 12.9089 7.26114 12.1272C7.26114 11.1741 6.94499 10.3223 6.45049 9.75887L4.737 7.99654L6.48597 6.17348C7.00644 5.67968 7.35237 4.80331 7.35237 3.80516C7.35237 3.01477 7.13569 2.3145 6.78691 1.806H8.00083C9.01929 1.806 9.84514 2.69931 9.84514 3.75339C9.84514 4.27435 9.64304 4.74738 9.31516 5.09128L6.50307 7.99558L12.3436 14.0046C12.1586 14.1222 11.9251 14.1743 11.6914 14.1743ZM12.9149 12.298L8.72927 7.99412L10.7228 5.94989C11.1289 5.43819 11.3861 4.66697 11.3861 3.80498C11.3861 3.00947 11.1663 2.29227 10.8143 1.78345L11.7067 1.81029C12.3758 1.81029 12.9181 2.36578 12.9181 3.04974L12.9149 12.298Z" fill="#1C1D1D"/>
</g>
</svg>
