<svg width="64" height="20" viewBox="0 0 64 20" fill="none" xmlns="http://www.w3.org/2000/svg">
<path fill-rule="evenodd" clip-rule="evenodd" d="M0.0674621 13.9659C0.0674621 13.0081 0.0505966 12.2044 0 11.4877H1.75536L1.83767 12.719H1.88691C2.28477 12.0683 3.01235 11.2988 4.36952 11.2988C5.42884 11.2988 6.25626 11.9157 6.60319 12.8385H6.63726C6.91908 12.377 7.24897 12.0354 7.62928 11.7951C8.07656 11.4708 8.58978 11.2988 9.25175 11.2988C10.5919 11.2988 11.948 12.2388 11.948 14.906V19.8114H9.96246V15.2141C9.96246 13.8297 9.49984 13.0081 8.524 13.0081C7.82779 13.0081 7.31424 13.5219 7.10055 14.1205C7.05029 14.325 7.00071 14.5816 7.00071 14.8192V19.8114H5.01445V14.9911C5.01445 13.8297 4.56836 13.0081 3.62491 13.0081C2.8636 13.0081 2.35122 13.6245 2.16874 14.2044C2.08542 14.4109 2.05203 14.6495 2.05203 14.8884V19.8114H0.0674621V13.9659Z" fill="#2D2D2D"/>
<path fill-rule="evenodd" clip-rule="evenodd" d="M19.6839 17.8117C19.6839 18.5634 19.717 19.2972 19.7998 19.8114H17.9623L17.8304 18.8887H17.7802C17.284 19.5388 16.44 19.9996 15.3976 19.9996C13.7754 19.9996 12.8657 18.7869 12.8657 17.5213C12.8657 15.4181 14.6688 14.3593 17.6478 14.3762V14.2389C17.6478 13.6917 17.4324 12.7864 16.0095 12.7864C15.2148 12.7864 14.387 13.043 13.8412 13.4013L13.4435 12.035C14.0404 11.6582 15.0839 11.2988 16.3571 11.2988C18.9397 11.2988 19.6839 12.9921 19.6839 14.8032V17.8117ZM17.697 15.7437C16.2576 15.7092 14.8844 16.034 14.8844 17.2991C14.8844 18.1187 15.3973 18.4955 16.0429 18.4955C16.8527 18.4955 17.4495 17.9483 17.6309 17.3503C17.6802 17.1964 17.697 17.0248 17.697 16.8886V15.7437Z" fill="#2D2D2D"/>
<path fill-rule="evenodd" clip-rule="evenodd" d="M21.0914 13.9659C21.0914 13.0081 21.0731 12.2044 21.0249 11.4877H22.8106L22.9105 12.7353H22.9594C23.3073 12.0866 24.1843 11.2988 25.5245 11.2988C26.9315 11.2988 28.3877 12.2388 28.3877 14.8718V19.8114H26.3526V15.1117C26.3526 13.9144 25.9223 13.0081 24.8134 13.0081C24.0025 13.0081 23.44 13.6065 23.2243 14.2393C23.1592 14.4278 23.142 14.6847 23.142 14.9223V19.8114H21.0914V13.9659Z" fill="#2D2D2D"/>
<path fill-rule="evenodd" clip-rule="evenodd" d="M37.212 8.14258V17.4687C37.212 18.3232 37.2445 19.2479 37.2778 19.8113H35.4573L35.3759 18.4953H35.3421C34.862 19.4188 33.8841 19.9994 32.7104 19.9994C30.7916 19.9994 29.2687 18.3076 29.2687 15.7436C29.2518 12.9571 30.9397 11.2987 32.8757 11.2987C33.9841 11.2987 34.7791 11.7779 35.1426 12.3937H35.1762V8.14258H37.212ZM35.1772 14.9561C35.1772 14.787 35.1601 14.5809 35.1282 14.4105C34.9459 13.59 34.3001 12.9229 33.3734 12.9229C32.0661 12.9229 31.3379 14.1201 31.3379 15.6756C31.3379 17.1964 32.0661 18.3077 33.3569 18.3077C34.1839 18.3077 34.9125 17.7267 35.1109 16.821C35.1601 16.6322 35.1772 16.4273 35.1772 16.2043V14.9561Z" fill="#2D2D2D"/>
<path fill-rule="evenodd" clip-rule="evenodd" d="M38.6514 19.8115H40.7054V11.4883H38.6514V19.8115Z" fill="#2D2D2D"/>
<path fill-rule="evenodd" clip-rule="evenodd" d="M42.1433 14.1707C42.1433 13.0431 42.1261 12.2386 42.0767 11.4872H43.8477L43.9125 13.0764H43.9811C44.3776 11.897 45.3211 11.4872 46.1812 11.4872C46.3794 11.4872 46.4951 11.4522 46.661 11.4872V13.3338C46.4951 13.2997 46.3134 13.2655 46.0652 13.2655C45.089 13.2655 44.4265 13.9145 44.2447 14.854C44.2125 15.0421 44.1791 15.2653 44.1791 15.5057V19.8115H42.1433V14.1707Z" fill="#2D2D2D"/>
<path fill-rule="evenodd" clip-rule="evenodd" d="M47.6045 19.8115H49.6555V11.4883H47.6045V19.8115Z" fill="#2D2D2D"/>
<path fill-rule="evenodd" clip-rule="evenodd" d="M47.1188 1.42407C45.8868 2.16096 42.9809 3.88247 41.8961 4.52356C41.235 4.87145 39.7037 5.02336 38.8377 3.81715C38.8222 3.79537 37.6858 2.32872 37.6394 2.2735C37.6068 2.23448 36.8722 1.10893 35.2352 1.07374C34.9934 1.06781 33.7909 1.06119 32.6175 1.75001C31.058 2.67034 27.4309 4.81222 27.4309 4.81222C27.4299 4.81222 27.4299 4.81413 27.428 4.81413C25.9371 5.69527 24.7754 6.3813 24.7754 6.3813L26.1479 8.1225C26.79 8.94597 28.2379 9.58305 29.4935 8.83849C29.4935 8.83849 34.1331 6.06337 34.1501 6.05536C36.1566 4.91866 37.7048 4.91866 38.7324 5.34163C39.6548 5.74422 40.4573 6.74731 40.4573 6.74731C40.4573 6.74731 41.506 8.08975 41.691 8.32458C42.2877 9.08325 43.2753 8.78518 43.2753 8.78518C43.2753 8.78518 43.6413 8.74232 44.193 8.40402C44.193 8.40402 48.687 5.71252 48.6898 5.71165C50.1168 4.84688 51.4256 4.68539 52.0945 4.74898C54.1895 4.94566 54.8404 6.45743 55.7487 7.51208C56.2837 8.13243 56.7664 8.48467 57.5046 8.4669C57.9897 8.45628 58.5376 8.15246 58.6184 8.09758L63.9999 4.88974C63.9999 4.88974 63.4477 4.03072 62.3168 2.69421C61.3047 1.50176 60.2297 2.04128 59.3726 2.47976C59.0126 2.66372 57.7078 3.56019 56.4153 4.18559C55.4942 4.63104 54.1713 4.49708 53.4463 3.57169C53.4029 3.51542 52.2299 2.0486 52.1066 1.86812C51.6332 1.25561 50.7095 0.707031 49.5257 0.707031C48.8059 0.707031 47.9891 0.909808 47.1188 1.42407Z" fill="#2D2D2D"/>
</svg>
