<svg width="46" height="28" viewBox="0 0 46 28" fill="none" xmlns="http://www.w3.org/2000/svg">
<path d="M45.5 14.0004C45.5 21.2878 39.4769 27.2811 32 27.2811C24.5923 27.2811 18.5 21.2878 18.5 14.0004C18.5 6.71307 24.5231 0.719727 31.9308 0.719727C39.4769 0.719727 45.5 6.71307 45.5 14.0004Z" fill="#717171"/>
<path d="M27.4308 14.0685C27.4308 13.115 27.2923 12.1616 27.1538 11.2762H18.8462C18.9154 10.7994 19.0538 10.3908 19.1923 9.84595H26.6C26.4615 9.36921 26.2538 8.89247 26.0462 8.41572H19.7462C19.9538 7.93898 20.2308 7.53034 20.5077 6.98549H25.2846C25.0077 6.50875 24.6615 6.03201 24.2462 5.55526H21.6154C22.0308 5.07852 22.4462 4.66988 23 4.19314C20.6462 2.01374 17.4615 0.719727 13.9308 0.719727C6.59231 0.924045 0.5 6.71307 0.5 14.0004C0.5 21.2878 6.52308 27.2811 14 27.2811C17.5308 27.2811 20.6462 25.919 23.0692 23.8077C23.5538 23.3991 23.9692 22.9223 24.4538 22.3775H21.6846C21.3385 21.9688 20.9923 21.4921 20.7154 21.0154H25.4231C25.7 20.6067 25.9769 20.13 26.1846 19.5851H19.8846C19.6769 19.1765 19.4692 18.6998 19.3308 18.1549H26.7385C27.1538 16.929 27.4308 15.5669 27.4308 14.0685Z" fill="#4D4D4D"/>
<path d="M18.7771 17.4057L18.9848 16.1798C18.9156 16.1798 18.7771 16.2479 18.6387 16.2479C18.154 16.2479 18.0848 15.9754 18.154 15.8392L18.5694 13.3874H19.331L19.5387 12.0253H18.8463L18.9848 11.208H17.531C17.531 11.208 16.7002 15.8392 16.7002 16.3841C16.7002 17.2014 17.1848 17.61 17.8771 17.61C18.2925 17.61 18.6387 17.4738 18.7771 17.4057Z" fill="white"/>
<path d="M19.2617 15.158C19.2617 17.133 20.6463 17.6098 21.754 17.6098C22.7925 17.6098 23.2771 17.4055 23.2771 17.4055L23.554 16.0433C23.554 16.0433 22.7925 16.3839 22.0309 16.3839C20.4386 16.3839 20.7156 15.2261 20.7156 15.2261H23.6233C23.6233 15.2261 23.8309 14.3407 23.8309 13.932C23.8309 13.0467 23.3463 11.8889 21.754 11.8889C20.3694 11.8208 19.2617 13.3872 19.2617 15.158ZM21.754 13.1148C22.5156 13.1148 22.3771 14.0002 22.3771 14.0683H20.7848C20.854 14.0002 20.9925 13.1148 21.754 13.1148Z" fill="white"/>
<path d="M30.8231 17.4061L31.1 15.8396C31.1 15.8396 30.4077 16.1802 29.8539 16.1802C28.8846 16.1802 28.4 15.431 28.4 14.5456C28.4 12.843 29.2308 11.9576 30.2693 11.9576C30.9616 11.9576 31.5846 12.3662 31.5846 12.3662L31.7923 10.8679C31.7923 10.8679 30.9616 10.5273 30.1308 10.5273C28.4693 10.5273 26.877 11.9576 26.877 14.6137C26.877 16.3845 27.7077 17.5423 29.4385 17.5423C30.0616 17.6104 30.8231 17.4061 30.8231 17.4061Z" fill="white"/>
<path d="M10.9539 11.8213C9.98468 11.8213 9.22314 12.0937 9.22314 12.0937L9.01544 13.3196C9.01544 13.3196 9.63852 13.0472 10.6078 13.0472C11.0924 13.0472 11.5078 13.1153 11.5078 13.5239C11.5078 13.7964 11.4385 13.8645 11.4385 13.8645H10.8154C9.56929 13.8645 8.25391 14.3412 8.25391 15.9758C8.25391 17.2698 9.08468 17.5422 9.63852 17.5422C10.6078 17.5422 11.0924 16.9293 11.1616 16.9293L11.0924 17.4741H12.2693L12.8231 13.592C12.8231 11.8894 11.4385 11.8213 10.9539 11.8213ZM11.2308 14.9542C11.2308 15.1585 11.0924 16.3163 10.2616 16.3163C9.84621 16.3163 9.70775 15.9758 9.70775 15.7714C9.70775 15.4309 9.91544 14.9542 11.0231 14.9542C11.1616 14.9542 11.2308 14.9542 11.2308 14.9542Z" fill="white"/>
<path d="M14.2073 17.542C14.5535 17.542 16.3535 17.6101 16.3535 15.7031C16.3535 13.9323 14.6227 14.2729 14.6227 13.5918C14.6227 13.2513 14.8996 13.1151 15.3843 13.1151C15.5919 13.1151 16.3535 13.1832 16.3535 13.1832L16.5612 11.8891C16.5612 11.8891 16.0766 11.7529 15.1766 11.7529C14.1381 11.7529 13.0304 12.1616 13.0304 13.5918C13.0304 15.2263 14.8304 15.0901 14.8304 15.7031C14.8304 16.1117 14.3458 16.1798 13.9996 16.1798C13.3766 16.1798 12.6843 15.9755 12.6843 15.9755L12.4766 17.2695C12.615 17.4057 13.0304 17.542 14.2073 17.542Z" fill="white"/>
<path d="M42.7306 10.7314L42.4537 12.6384C42.4537 12.6384 41.8998 11.9574 41.0691 11.9574C39.7537 11.9574 38.646 13.5238 38.646 15.3627C38.646 16.5205 39.1998 17.6783 40.446 17.6783C41.2768 17.6783 41.8306 17.1334 41.8306 17.1334L41.7614 17.6102H43.2152L44.2537 10.8677L42.7306 10.7314ZM42.0383 14.4092C42.0383 15.1583 41.6922 16.1799 40.8614 16.1799C40.3768 16.1799 40.0998 15.7713 40.0998 15.0221C40.0998 13.8643 40.5845 13.1833 41.2768 13.1833C41.7614 13.2514 42.0383 13.5919 42.0383 14.4092Z" fill="white"/>
<path d="M3.13071 17.474L3.96148 12.4341L4.09994 17.474H5.06917L6.9384 12.4341L6.17686 17.474H7.69994L8.87686 10.7314H6.52302L5.06917 14.8859L4.99994 10.7314H2.92302L1.74609 17.474H3.13071Z" fill="white"/>
<path d="M25.2847 17.4736C25.7001 15.158 25.7693 13.251 26.8078 13.5916C26.9462 12.7062 27.1539 12.2976 27.2924 11.957H27.0155C26.3924 11.957 25.8385 12.7743 25.8385 12.7743L25.977 12.0251H24.5924L23.6924 17.4736H25.2847Z" fill="white"/>
<path d="M34.1463 11.8213C33.1771 11.8213 32.4155 12.0937 32.4155 12.0937L32.2078 13.3196C32.2078 13.3196 32.8309 13.0472 33.8001 13.0472C34.2847 13.0472 34.7001 13.1153 34.7001 13.5239C34.7001 13.7964 34.6309 13.8645 34.6309 13.8645H34.0078C32.7617 13.8645 31.4463 14.3412 31.4463 15.9758C31.4463 17.2698 32.2771 17.5422 32.8309 17.5422C33.8001 17.5422 34.2848 16.9293 34.354 16.9293L34.2847 17.4741H35.6001L36.154 13.592C36.154 11.8894 34.6309 11.8213 34.1463 11.8213ZM34.4924 14.9542C34.4924 15.1585 34.354 16.3163 33.5232 16.3163C33.1078 16.3163 32.9694 15.9758 32.9694 15.7714C32.9694 15.4309 33.1771 14.9542 34.2847 14.9542C34.4232 14.9542 34.4232 14.9542 34.4924 14.9542Z" fill="white"/>
<path d="M37.2613 17.4736C37.6766 15.158 37.7459 13.251 38.7843 13.5916C38.9228 12.7062 39.1305 12.2976 39.2689 11.957H38.992C38.3689 11.957 37.8151 12.7743 37.8151 12.7743L37.9536 12.0251H36.5689L35.6689 17.4736H37.2613Z" fill="white"/>
</svg>
