<svg width="46" height="28" viewBox="0 0 46 28" fill="none" xmlns="http://www.w3.org/2000/svg">
<path d="M45.4998 13.9999C45.4998 21.2873 39.4768 27.2806 31.9998 27.2806C24.5922 27.2806 18.4998 21.2873 18.4998 13.9999C18.4998 6.71258 24.5229 0.719238 31.9306 0.719238C39.4768 0.719238 45.4998 6.71258 45.4998 13.9999Z" fill="#717171"/>
<path d="M27.4308 14.068C27.4308 13.1146 27.2923 12.1611 27.1538 11.2757H18.8462C18.9154 10.799 19.0538 10.3903 19.1923 9.84546H26.6C26.4615 9.36872 26.2538 8.89198 26.0462 8.41523H19.7462C19.9538 7.93849 20.2308 7.52985 20.5077 6.985H25.2846C25.0077 6.50826 24.6615 6.03152 24.2462 5.55478H21.6154C22.0308 5.07803 22.4462 4.6694 23 4.19265C20.6462 2.01326 17.4615 0.719238 13.9308 0.719238C6.59231 0.923557 0.5 6.71258 0.5 13.9999C0.5 21.2873 6.52308 27.2806 14 27.2806C17.5308 27.2806 20.6462 25.9185 23.0692 23.8072C23.5538 23.3986 23.9692 22.9218 24.4538 22.377H21.6846C21.3385 21.9684 20.9923 21.4916 20.7154 21.0149H25.4231C25.7 20.6062 25.9769 20.1295 26.1846 19.5846H19.8846C19.6769 19.176 19.4692 18.6993 19.3308 18.1544H26.7385C27.1538 16.9285 27.4308 15.5664 27.4308 14.068Z" fill="#4D4D4D"/>
<path d="M18.7769 17.4053L18.9846 16.1794C18.9154 16.1794 18.7769 16.2475 18.6385 16.2475C18.1539 16.2475 18.0846 15.9751 18.1539 15.8389L18.5692 13.387H19.3308L19.5385 12.0249H18.8462L18.9846 11.2076H17.5308C17.5308 11.2076 16.7 15.8389 16.7 16.3837C16.7 17.201 17.1846 17.6096 17.8769 17.6096C18.2923 17.6096 18.6385 17.4734 18.7769 17.4053Z" fill="white"/>
<path d="M19.2615 15.1578C19.2615 17.1329 20.6462 17.6097 21.7538 17.6097C22.7923 17.6097 23.2769 17.4053 23.2769 17.4053L23.5538 16.0432C23.5538 16.0432 22.7923 16.3837 22.0308 16.3837C20.4385 16.3837 20.7154 15.2259 20.7154 15.2259H23.6231C23.6231 15.2259 23.8308 14.3406 23.8308 13.9319C23.8308 13.0465 23.3462 11.8887 21.7538 11.8887C20.3692 11.8206 19.2615 13.3871 19.2615 15.1578ZM21.7538 13.1146C22.5154 13.1146 22.3769 14 22.3769 14.0681H20.7846C20.8538 14 20.9923 13.1146 21.7538 13.1146Z" fill="white"/>
<path d="M30.823 17.4052L31.0999 15.8388C31.0999 15.8388 30.4076 16.1793 29.8538 16.1793C28.8845 16.1793 28.3999 15.4301 28.3999 14.5448C28.3999 12.8421 29.2307 11.9567 30.2691 11.9567C30.9614 11.9567 31.5845 12.3654 31.5845 12.3654L31.7922 10.867C31.7922 10.867 30.9614 10.5265 30.1307 10.5265C28.4691 10.5265 26.8768 11.9567 26.8768 14.6129C26.8768 16.3836 27.7076 17.5414 29.4384 17.5414C30.0614 17.6095 30.823 17.4052 30.823 17.4052Z" fill="white"/>
<path d="M10.9541 11.8207C9.98483 11.8207 9.22329 12.0931 9.22329 12.0931L9.0156 13.319C9.0156 13.319 9.63867 13.0466 10.6079 13.0466C11.0925 13.0466 11.5079 13.1147 11.5079 13.5233C11.5079 13.7958 11.4387 13.8639 11.4387 13.8639H10.8156C9.56944 13.8639 8.25406 14.3406 8.25406 15.9752C8.25406 17.2692 9.08483 17.5416 9.63867 17.5416C10.6079 17.5416 11.0925 16.9286 11.1618 16.9286L11.0925 17.4735H12.2694L12.8233 13.5914C12.8233 11.8888 11.4387 11.8207 10.9541 11.8207ZM11.231 14.9536C11.231 15.1579 11.0925 16.3157 10.2618 16.3157C9.84637 16.3157 9.70791 15.9752 9.70791 15.7708C9.70791 15.4303 9.9156 14.9536 11.0233 14.9536C11.1618 14.9536 11.231 14.9536 11.231 14.9536Z" fill="white"/>
<path d="M14.2074 17.5416C14.5536 17.5416 16.3536 17.6097 16.3536 15.7027C16.3536 13.932 14.6228 14.2725 14.6228 13.5914C14.6228 13.2509 14.8997 13.1147 15.3843 13.1147C15.592 13.1147 16.3536 13.1828 16.3536 13.1828L16.5613 11.8888C16.5613 11.8888 16.0767 11.7526 15.1767 11.7526C14.1382 11.7526 13.0305 12.1612 13.0305 13.5914C13.0305 15.226 14.8305 15.0898 14.8305 15.7027C14.8305 16.1114 14.3459 16.1795 13.9997 16.1795C13.3767 16.1795 12.6843 15.9751 12.6843 15.9751L12.4767 17.2692C12.6151 17.4054 13.0305 17.5416 14.2074 17.5416Z" fill="white"/>
<path d="M42.7307 10.731L42.4538 12.6379C42.4538 12.6379 41.8999 11.9569 41.0692 11.9569C39.7538 11.9569 38.6461 13.5233 38.6461 15.3622C38.6461 16.52 39.1999 17.6778 40.4461 17.6778C41.2769 17.6778 41.8307 17.1329 41.8307 17.1329L41.7615 17.6097H43.2153L44.2538 10.8672L42.7307 10.731ZM42.0384 14.4087C42.0384 15.1579 41.6922 16.1795 40.8615 16.1795C40.3769 16.1795 40.0999 15.7708 40.0999 15.0216C40.0999 13.8638 40.5846 13.1828 41.2769 13.1828C41.7615 13.2509 42.0384 13.5914 42.0384 14.4087Z" fill="white"/>
<path d="M3.13053 17.4735L3.9613 12.4336L4.09976 17.4735H5.06899L6.93822 12.4336L6.17668 17.4735H7.69976L8.87668 10.731H6.52283L5.06899 14.8854L4.99976 10.731H2.92283L1.74591 17.4735H3.13053Z" fill="white"/>
<path d="M25.2847 17.4735C25.7 15.1579 25.7693 13.2509 26.8077 13.5915C26.9462 12.7061 27.1539 12.2974 27.2924 11.9569H27.0154C26.3924 11.9569 25.8385 12.7742 25.8385 12.7742L25.977 12.025H24.5924L23.6924 17.4735H25.2847Z" fill="white"/>
<path d="M34.1464 11.8207C33.1772 11.8207 32.4156 12.0931 32.4156 12.0931L32.2079 13.319C32.2079 13.319 32.831 13.0466 33.8003 13.0466C34.2849 13.0466 34.7003 13.1147 34.7003 13.5233C34.7003 13.7958 34.631 13.8639 34.631 13.8639H34.008C32.7618 13.8639 31.4464 14.3406 31.4464 15.9752C31.4464 17.2692 32.2772 17.5416 32.831 17.5416C33.8003 17.5416 34.2849 16.9286 34.3541 16.9286L34.2849 17.4735H35.6003L36.1541 13.5914C36.1541 11.8888 34.631 11.8207 34.1464 11.8207ZM34.4926 14.9536C34.4926 15.1579 34.3541 16.3157 33.5233 16.3157C33.1079 16.3157 32.9695 15.9752 32.9695 15.7708C32.9695 15.4303 33.1772 14.9536 34.2849 14.9536C34.4233 14.9536 34.4233 14.9536 34.4926 14.9536Z" fill="white"/>
<path d="M37.2613 17.4735C37.6767 15.1579 37.7459 13.2509 38.7844 13.5915C38.9228 12.7061 39.1305 12.2974 39.269 11.9569H38.9921C38.369 11.9569 37.8151 12.7742 37.8151 12.7742L37.9536 12.025H36.569L35.669 17.4735H37.2613Z" fill="white"/>
</svg>
