<svg width="60" height="18" viewBox="0 0 60 18" fill="none" xmlns="http://www.w3.org/2000/svg">
<path d="M55.2721 0.291016H51.6007C50.4908 0.291016 49.637 0.632536 49.1247 1.74248L42.1235 17.7086H47.0756C47.0756 17.7086 47.9294 15.5741 48.1001 15.0618C48.6124 15.0618 53.4791 15.0618 54.1621 15.0618C54.3329 15.6594 54.7598 17.6232 54.7598 17.6232H59.1996L55.2721 0.291016ZM49.4662 11.4758C49.8931 10.4513 51.3446 6.60914 51.3446 6.60914C51.3446 6.69452 51.7715 5.58458 51.9422 4.98692L52.2838 6.52376C52.2838 6.52376 53.2229 10.7074 53.3937 11.5612H49.4662V11.4758Z" fill="#303030"/>
<path d="M42.4651 11.9884C42.4651 15.5743 39.2206 17.965 34.1832 17.965C32.0487 17.965 29.9996 17.5381 28.8896 17.0258L29.5727 13.0983L30.1704 13.3545C31.7072 14.0375 32.7318 14.2936 34.6101 14.2936C35.9762 14.2936 37.4277 13.7814 37.4277 12.586C37.4277 11.8176 36.83 11.3053 34.9516 10.4515C33.1587 9.59773 30.768 8.23165 30.768 5.75562C30.768 2.34042 34.0978 0.0351562 38.7937 0.0351562C40.5867 0.0351562 42.1236 0.376677 43.0627 0.803577L42.3797 4.5603L42.0382 4.21878C41.1844 3.87726 40.0744 3.53574 38.4522 3.53574C36.6592 3.62112 35.8054 4.38954 35.8054 5.07258C35.8054 5.841 36.83 6.43866 38.4522 7.20709C41.1844 8.48779 42.4651 9.93925 42.4651 11.9884Z" fill="#2D2D2D"/>
<path d="M0.799805 0.461638L0.885185 0.120117H8.22787C9.25244 0.120117 10.0209 0.461638 10.277 1.57158L11.8992 9.25579C10.277 5.15754 6.52027 1.82772 0.799805 0.461638Z" fill="#7B7B7B"/>
<path d="M22.2301 0.291435L14.802 17.6236H9.76461L5.49561 3.10898C8.56929 5.07272 11.1307 8.14641 12.0699 10.2809L12.5822 12.0739L17.1927 0.206055H22.2301V0.291435Z" fill="#2D2D2D"/>
<path d="M24.1939 0.206055H28.8898L25.9015 17.6236H21.2056L24.1939 0.206055Z" fill="#2D2D2D"/>
</svg>
